<?xml version="1.0" encoding="UTF-8"?>
<svg width="152px" height="33px" viewBox="0 0 152 33" version="1.1" xmlns="http://www.w3.org/2000/svg" xmlns:xlink="http://www.w3.org/1999/xlink">
    <!-- Generator: Sketch 42 (36781) - http://www.bohemiancoding.com/sketch -->
    <title>Lite_hover</title>
    <desc>Created with Sketch.</desc>
    <defs>
        <rect id="path-1" x="0" y="0" width="150" height="31" rx="8.61244019"></rect>
        <mask id="mask-2" maskContentUnits="userSpaceOnUse" maskUnits="objectBoundingBox" x="-0.956937799" y="-0.956937799" width="151.913876" height="32.9138756">
            <rect x="-0.956937799" y="-0.956937799" width="151.913876" height="32.9138756" fill="white"></rect>
            <use xlink:href="#path-1" fill="black"></use>
        </mask>
    </defs>
    <g id="Page-1" stroke="none" stroke-width="1" fill="none" fill-rule="evenodd">
        <g id="Logo-Copy" transform="translate(-229.000000, -84.000000)">
            <g id="lite" transform="translate(230.000000, 85.000000)">
                <g id="Lite_hover">
                    <g id="Group-7-Copy">
                        <g id="Group-2">
                            <g id="Rectangle-7">
                                <use fill="#70737F" fill-rule="evenodd" xlink:href="#path-1"></use>
                                <use stroke-opacity="0.5" stroke="#70737F" mask="url(#mask-2)" stroke-width="1.9138756" xlink:href="#path-1"></use>
                            </g>
                        </g>
                        <g id="Group-8" transform="translate(7.177033, 6.476923)">
                            <g id="Group-6" transform="translate(81.904306, 0.000000)" fill="#F8F7F5">
                                <path d="M0.200956938,0.253588517 L0.200956938,17 L10.2727273,17 L10.2727273,14.4401914 L3.02392344,14.4401914 L3.02392344,0.253588517 L0.200956938,0.253588517 Z M15.3684204,0.253588517 L15.3684204,17 L18.1913869,17 L18.1913869,0.253588517 L15.3684204,0.253588517 Z M22.9999986,0.253588517 L22.9999986,2.78947368 L28.28708,2.78947368 L28.28708,17 L31.1100465,17 L31.1100465,2.78947368 L36.4210513,2.78947368 L36.4210513,0.253588517 L22.9999986,0.253588517 Z M41.229663,0.253588517 L41.229663,17 L53.4784668,17 L53.4784668,14.4641148 L44.0526295,14.4641148 L44.0526295,9.84688995 L52.2344477,9.84688995 L52.2344477,7.33492823 L44.0526295,7.33492823 L44.0526295,2.78947368 L53.1913855,2.78947368 L53.1913855,0.253588517 L41.229663,0.253588517 Z" id="LITE"></path>
                            </g>
                            <g id="OASIS" transform="translate(0.000000, 0.676923)">
                                <g id="S" transform="translate(35.406699, 0.000000)" fill="#F8F7F5">
                                    <g id="Group-5" transform="translate(5.382775, 4.435379) scale(-1, 1) translate(-5.382775, -4.435379) translate(0.000000, 0.023840)">
                                        <path d="M0,0.596153846 C0,0.266907168 0.272409539,-2.16879506e-13 0.5964248,-2.16879506e-13 L6.33971292,-2.16879506e-13 C6.33971292,-2.16879506e-13 6.33971292,1.19230769 6.33971292,1.19230769 C6.33971292,1.19230769 0.5964248,1.19230769 0.5964248,1.19230769 C0.267028479,1.19230769 0,0.915771484 0,0.596153846 L0,0.596153846 Z" id="Rectangle-4"></path>
                                        <path d="M6.30382784,7.55923095 L6.30382784,8.75153864 C8.72833152,8.75153864 10.6937801,6.79243999 10.6937801,4.37576932 C10.6937801,1.95909866 8.72833152,0 6.30382784,0 L6.30382784,1.19230769 C8.06770383,1.19230769 9.49760784,2.61759201 9.49760784,4.37576932 C9.49760784,6.13394663 8.06770383,7.55923095 6.30382784,7.55923095 Z" id="Combined-Shape"></path>
                                    </g>
                                    <g id="Group-5-Copy" transform="translate(5.382775, 11.923077) scale(1, -1) translate(-5.382775, -11.923077) translate(0.000000, 7.511538)">
                                        <path d="M0,0.596153846 C0,0.266907168 0.272409539,-2.16879506e-13 0.5964248,-2.16879506e-13 L6.33971292,-2.16879506e-13 C6.33971292,-2.16879506e-13 6.33971292,1.19230769 6.33971292,1.19230769 C6.33971292,1.19230769 0.5964248,1.19230769 0.5964248,1.19230769 C0.267028479,1.19230769 0,0.915771484 0,0.596153846 L0,0.596153846 Z" id="Rectangle-4"></path>
                                        <path d="M6.30382784,7.55923095 L6.30382784,8.75153864 C8.72833152,8.75153864 10.6937801,6.79243999 10.6937801,4.37576932 C10.6937801,1.95909866 8.72833152,0 6.30382784,0 L6.30382784,1.19230769 C8.06770383,1.19230769 9.49760784,2.61759201 9.49760784,4.37576932 C9.49760784,6.13394663 8.06770383,7.55923095 6.30382784,7.55923095 Z" id="Combined-Shape"></path>
                                    </g>
                                    <rect id="Rectangle-16" x="3.8277512" y="7.58307401" width="3.11004785" height="1.19230769" rx="0.596153846"></rect>
                                </g>
                                <g id="S-Copy" transform="translate(60.765550, 0.000000)" fill="#F8F7F5">
                                    <g id="Group-5" transform="translate(5.382775, 4.435379) scale(-1, 1) translate(-5.382775, -4.435379) translate(0.000000, 0.023840)">
                                        <path d="M0,0.596153846 C0,0.266907168 0.272409539,-2.16879506e-13 0.5964248,-2.16879506e-13 L6.33971292,-2.16879506e-13 C6.33971292,-2.16879506e-13 6.33971292,1.19230769 6.33971292,1.19230769 C6.33971292,1.19230769 0.5964248,1.19230769 0.5964248,1.19230769 C0.267028479,1.19230769 0,0.915771484 0,0.596153846 L0,0.596153846 Z" id="Rectangle-4"></path>
                                        <path d="M6.30382784,7.55923095 L6.30382784,8.75153864 C8.72833152,8.75153864 10.6937801,6.79243999 10.6937801,4.37576932 C10.6937801,1.95909866 8.72833152,0 6.30382784,0 L6.30382784,1.19230769 C8.06770383,1.19230769 9.49760784,2.61759201 9.49760784,4.37576932 C9.49760784,6.13394663 8.06770383,7.55923095 6.30382784,7.55923095 Z" id="Combined-Shape"></path>
                                    </g>
                                    <g id="Group-5-Copy" transform="translate(5.382775, 11.923077) scale(1, -1) translate(-5.382775, -11.923077) translate(0.000000, 7.511538)">
                                        <path d="M0,0.596153846 C0,0.266907168 0.272409539,-2.16879506e-13 0.5964248,-2.16879506e-13 L6.33971292,-2.16879506e-13 C6.33971292,-2.16879506e-13 6.33971292,1.19230769 6.33971292,1.19230769 C6.33971292,1.19230769 0.5964248,1.19230769 0.5964248,1.19230769 C0.267028479,1.19230769 0,0.915771484 0,0.596153846 L0,0.596153846 Z" id="Rectangle-4"></path>
                                        <path d="M6.30382784,7.55923095 L6.30382784,8.75153864 C8.72833152,8.75153864 10.6937801,6.79243999 10.6937801,4.37576932 C10.6937801,1.95909866 8.72833152,0 6.30382784,0 L6.30382784,1.19230769 C8.06770383,1.19230769 9.49760784,2.61759201 9.49760784,4.37576932 C9.49760784,6.13394663 8.06770383,7.55923095 6.30382784,7.55923095 Z" id="Combined-Shape"></path>
                                    </g>
                                    <rect id="Rectangle-16" x="3.8277512" y="7.58307401" width="3.11004785" height="1.19230769" rx="0.596153846"></rect>
                                </g>
                                <rect id="Rectangle-5" fill="#F8F7F5" x="52.8708134" y="0" width="1.19617225" height="16.4538462" rx="0.598086124"></rect>
                                <g id="A" transform="translate(16.028708, 0.000000)">
                                    <path d="M0.801103702,16.4538462 C1.10659534,16.4538462 1.31661772,16.3135795 1.43117701,16.0330419 L2.85170601,12.6438621 L11.2144972,12.6438621 L12.6350262,16.0330419 C12.7495855,16.3135795 12.9596079,16.4538462 13.2650995,16.4538462 C13.356747,16.4538462 13.4445745,16.4348912 13.5285847,16.3969808 C13.7042424,16.3287418 13.8264373,16.2074301 13.8951728,16.0330419 C13.9715457,15.8586538 13.9715457,15.6842682 13.8951728,15.5098799 L12.3028058,11.6998959 L12.3028058,11.6885228 L7.66317498,0.577017212 C7.6479004,0.539106743 7.62880744,0.497405812 7.60589559,0.451913208 C7.60589559,0.459495343 7.59062122,0.444331377 7.56007207,0.406420908 C7.53716011,0.376092471 7.52188585,0.35713754 7.51424856,0.349555506 C7.50661127,0.349555506 7.48751831,0.334391541 7.45696917,0.304063104 C7.42641992,0.281316803 7.41114566,0.269943904 7.41114566,0.269943904 C7.33477269,0.216869166 7.25076377,0.182750269 7.15911633,0.167586101 C7.16675362,0.167586101 7.14766066,0.167586101 7.10183694,0.167586101 C7.06365041,0.160003967 7.04073896,0.156213001 7.03310167,0.156213001 C7.02546429,0.156213001 6.99873424,0.160003967 6.95291042,0.167586101 L6.89563103,0.167586101 C6.81162089,0.182750269 6.73143055,0.216869166 6.65505759,0.269943904 C6.66269488,0.26236177 6.64742061,0.273734769 6.60923408,0.304063104 C6.57868493,0.326809406 6.55959197,0.341973372 6.55195468,0.349555506 C6.5443174,0.35713754 6.52904313,0.376092471 6.50613117,0.406420908 C6.47558203,0.436749243 6.46030766,0.451913208 6.46030766,0.451913208 C6.4373958,0.497405812 6.41830284,0.539106743 6.40302827,0.577017212 L1.76339748,11.6885228 L1.76339748,11.6998959 L0.171030398,15.5098799 C0.0946575385,15.6842682 0.0946575385,15.8586538 0.171030398,16.0330419 C0.239765972,16.2074301 0.361960823,16.3287418 0.537618502,16.3969808 C0.62162875,16.4348912 0.70945627,16.4538462 0.801103702,16.4538462 L0.801103702,16.4538462 L0.801103702,16.4538462 Z" id="Maker-path-Copy-3" fill="#F8F7F5"></path>
                                    <polygon id="Maker-path-Copy-4" fill="#70737F" points="3.41304404 11.2790917 7.03310167 2.61279967 10.6531592 11.2790917"></polygon>
                                </g>
                                <path d="M0,5.26456283 C0,2.48872374 2.25681211,0.238461538 5.02031257,0.238461538 L5.74523767,0.238461538 C8.51787974,0.238461538 10.7655502,2.49179862 10.7655502,5.26456283 L10.7655502,11.6662064 C10.7655502,14.4420455 8.50873813,16.6923077 5.74523767,16.6923077 L5.02031257,16.6923077 C2.2476705,16.6923077 0,14.4389706 0,11.6662064 L0,5.26456283 Z M1.19617225,5.61390998 L1.19617225,11.3168593 C1.19617225,13.6317148 3.0705782,15.5 5.38277512,15.5 C7.69026718,15.5 9.56937799,13.6271441 9.56937799,11.3168593 L9.56937799,5.61390998 C9.56937799,3.29905445 7.69497204,1.43076923 5.38277512,1.43076923 C3.07528306,1.43076923 1.19617225,3.30362514 1.19617225,5.61390998 Z" id="Combined-Shape" fill="#F8F7F5"></path>
                            </g>
                        </g>
                    </g>
                </g>
            </g>
        </g>
    </g>
</svg>